<mxfile host="app.diagrams.net" modified="2023-10-26T23:17:07.680Z" agent="Mozilla/5.0 (Windows NT 10.0; Win64; x64) AppleWebKit/537.36 (KHTML, like Gecko) Chrome/118.0.0.0 Safari/537.36" etag="7HhMY9XotnaaiVh_xmVb" version="22.0.8" type="github">
  <diagram name="‫עמוד-1‬" id="1HOFslem63EXmMTgZ_XA">
    <mxGraphModel dx="993" dy="580" grid="1" gridSize="10" guides="1" tooltips="1" connect="1" arrows="1" fold="1" page="1" pageScale="1" pageWidth="827" pageHeight="1169" math="0" shadow="0">
      <root>
        <mxCell id="0" />
        <mxCell id="1" parent="0" />
        <mxCell id="5dp4FPc79GTO_rf7ZAwt-1" value="" style="endArrow=none;html=1;rounded=0;" edge="1" parent="1">
          <mxGeometry width="50" height="50" relative="1" as="geometry">
            <mxPoint x="360" y="360" as="sourcePoint" />
            <mxPoint x="360" y="240" as="targetPoint" />
          </mxGeometry>
        </mxCell>
        <mxCell id="5dp4FPc79GTO_rf7ZAwt-2" value="" style="endArrow=none;html=1;rounded=0;" edge="1" parent="1">
          <mxGeometry width="50" height="50" relative="1" as="geometry">
            <mxPoint x="360" y="360" as="sourcePoint" />
            <mxPoint x="560" y="360" as="targetPoint" />
          </mxGeometry>
        </mxCell>
        <mxCell id="5dp4FPc79GTO_rf7ZAwt-3" value="" style="endArrow=none;html=1;rounded=0;" edge="1" parent="1">
          <mxGeometry width="50" height="50" relative="1" as="geometry">
            <mxPoint x="560" y="240" as="sourcePoint" />
            <mxPoint x="560" y="360" as="targetPoint" />
          </mxGeometry>
        </mxCell>
        <mxCell id="5dp4FPc79GTO_rf7ZAwt-4" value="" style="endArrow=none;html=1;rounded=0;" edge="1" parent="1">
          <mxGeometry width="50" height="50" relative="1" as="geometry">
            <mxPoint x="360" y="240" as="sourcePoint" />
            <mxPoint x="560" y="240" as="targetPoint" />
          </mxGeometry>
        </mxCell>
        <mxCell id="5dp4FPc79GTO_rf7ZAwt-6" style="edgeStyle=orthogonalEdgeStyle;rounded=0;orthogonalLoop=1;jettySize=auto;html=1;exitX=0;exitY=0.75;exitDx=0;exitDy=0;" edge="1" parent="1" source="5dp4FPc79GTO_rf7ZAwt-5">
          <mxGeometry relative="1" as="geometry">
            <mxPoint x="350" y="215" as="targetPoint" />
          </mxGeometry>
        </mxCell>
        <mxCell id="5dp4FPc79GTO_rf7ZAwt-5" value="" style="swimlane;startSize=0;" vertex="1" parent="1">
          <mxGeometry x="370" y="140" width="40" height="100" as="geometry" />
        </mxCell>
        <mxCell id="5dp4FPc79GTO_rf7ZAwt-8" value="" style="whiteSpace=wrap;html=1;aspect=fixed;" vertex="1" parent="1">
          <mxGeometry x="410" y="190" width="50" height="50" as="geometry" />
        </mxCell>
        <mxCell id="5dp4FPc79GTO_rf7ZAwt-11" style="edgeStyle=orthogonalEdgeStyle;rounded=0;orthogonalLoop=1;jettySize=auto;html=1;exitX=0.855;exitY=0;exitDx=0;exitDy=4.35;exitPerimeter=0;" edge="1" parent="1" source="5dp4FPc79GTO_rf7ZAwt-10">
          <mxGeometry relative="1" as="geometry">
            <mxPoint x="560" y="330" as="targetPoint" />
          </mxGeometry>
        </mxCell>
        <mxCell id="5dp4FPc79GTO_rf7ZAwt-10" value="" style="shape=cylinder3;whiteSpace=wrap;html=1;boundedLbl=1;backgroundOutline=1;size=15;rotation=88;" vertex="1" parent="1">
          <mxGeometry x="540" y="310" width="10" height="30" as="geometry" />
        </mxCell>
        <mxCell id="5dp4FPc79GTO_rf7ZAwt-12" value="" style="rounded=0;whiteSpace=wrap;html=1;" vertex="1" parent="1">
          <mxGeometry x="510" y="340" width="40" height="15" as="geometry" />
        </mxCell>
        <mxCell id="5dp4FPc79GTO_rf7ZAwt-13" value="" style="curved=1;endArrow=classic;html=1;rounded=0;entryX=1;entryY=0.75;entryDx=0;entryDy=0;" edge="1" parent="1" target="5dp4FPc79GTO_rf7ZAwt-12">
          <mxGeometry width="50" height="50" relative="1" as="geometry">
            <mxPoint x="550" y="320" as="sourcePoint" />
            <mxPoint x="600" y="320" as="targetPoint" />
            <Array as="points">
              <mxPoint x="550" y="340" />
              <mxPoint x="550" y="320" />
            </Array>
          </mxGeometry>
        </mxCell>
        <mxCell id="5dp4FPc79GTO_rf7ZAwt-14" value="" style="whiteSpace=wrap;html=1;aspect=fixed;" vertex="1" parent="1">
          <mxGeometry x="370" y="60" width="80" height="80" as="geometry" />
        </mxCell>
        <mxCell id="5dp4FPc79GTO_rf7ZAwt-15" value="" style="whiteSpace=wrap;html=1;aspect=fixed;" vertex="1" parent="1">
          <mxGeometry x="410" y="140" width="50" height="50" as="geometry" />
        </mxCell>
        <mxCell id="5dp4FPc79GTO_rf7ZAwt-18" value="" style="endArrow=classic;html=1;rounded=0;entryX=0;entryY=0.75;entryDx=0;entryDy=0;" edge="1" parent="1" target="5dp4FPc79GTO_rf7ZAwt-14">
          <mxGeometry width="50" height="50" relative="1" as="geometry">
            <mxPoint x="350" y="220" as="sourcePoint" />
            <mxPoint x="350" y="120" as="targetPoint" />
            <Array as="points">
              <mxPoint x="350" y="120" />
            </Array>
          </mxGeometry>
        </mxCell>
        <mxCell id="5dp4FPc79GTO_rf7ZAwt-19" value="" style="ellipse;whiteSpace=wrap;html=1;" vertex="1" parent="1">
          <mxGeometry x="367" y="116" width="10" height="10" as="geometry" />
        </mxCell>
        <mxCell id="5dp4FPc79GTO_rf7ZAwt-20" value="" style="swimlane;startSize=0;" vertex="1" parent="1">
          <mxGeometry x="360" y="370" width="200" height="130" as="geometry" />
        </mxCell>
        <mxCell id="5dp4FPc79GTO_rf7ZAwt-22" value="" style="ellipse;whiteSpace=wrap;html=1;" vertex="1" parent="5dp4FPc79GTO_rf7ZAwt-20">
          <mxGeometry x="-10" y="70" width="30" height="10" as="geometry" />
        </mxCell>
        <mxCell id="5dp4FPc79GTO_rf7ZAwt-21" value="" style="curved=1;endArrow=classic;html=1;rounded=0;exitX=0;exitY=0.75;exitDx=0;exitDy=0;" edge="1" parent="1" source="5dp4FPc79GTO_rf7ZAwt-20">
          <mxGeometry width="50" height="50" relative="1" as="geometry">
            <mxPoint x="210" y="430" as="sourcePoint" />
            <mxPoint x="360" y="170" as="targetPoint" />
            <Array as="points">
              <mxPoint x="360" y="400" />
              <mxPoint x="350" y="370" />
              <mxPoint x="360" y="320" />
              <mxPoint x="350" y="250" />
            </Array>
          </mxGeometry>
        </mxCell>
        <mxCell id="5dp4FPc79GTO_rf7ZAwt-7" value="" style="curved=1;endArrow=classic;html=1;rounded=0;" edge="1" parent="1">
          <mxGeometry width="50" height="50" relative="1" as="geometry">
            <mxPoint x="560" y="330" as="sourcePoint" />
            <mxPoint x="360" y="180" as="targetPoint" />
            <Array as="points">
              <mxPoint x="580" y="350" />
              <mxPoint x="560" y="340" />
              <mxPoint x="570" y="370" />
              <mxPoint x="560" y="390" />
              <mxPoint x="500" y="370" />
              <mxPoint x="430" y="370" />
              <mxPoint x="360" y="380" />
              <mxPoint x="360" y="370" />
              <mxPoint x="360" y="310" />
              <mxPoint x="360" y="280" />
              <mxPoint x="360" y="260" />
            </Array>
          </mxGeometry>
        </mxCell>
      </root>
    </mxGraphModel>
  </diagram>
</mxfile>
